<svg width="47" height="47" viewBox="0 0 47 47" fill="none" xmlns="http://www.w3.org/2000/svg">
<circle cx="23.5" cy="23.5" r="23.5" fill="#007473"/>
<path d="M19.2213 23.4999C19.2213 21.1375 21.137 19.2219 23.5008 19.2219C25.8646 19.2219 27.7814 21.1375 27.7814 23.4999C27.7814 25.8622 25.8646 27.7778 23.5008 27.7778C21.137 27.7778 19.2213 25.8622 19.2213 23.4999ZM16.9074 23.4999C16.9074 27.1393 19.8593 30.0894 23.5008 30.0894C27.1424 30.0894 30.0943 27.1393 30.0943 23.4999C30.0943 19.8605 27.1424 16.9103 23.5008 16.9103C19.8593 16.9103 16.9074 19.8605 16.9074 23.4999ZM28.8145 16.6491C28.8143 16.9536 28.9046 17.2514 29.0738 17.5047C29.243 17.758 29.4836 17.9555 29.7651 18.0722C30.0466 18.1888 30.3564 18.2194 30.6553 18.1601C30.9543 18.1008 31.2289 17.9543 31.4445 17.739C31.66 17.5237 31.8069 17.2494 31.8665 16.9507C31.9261 16.652 31.8957 16.3424 31.7791 16.0609C31.6626 15.7795 31.4652 15.5389 31.2119 15.3696C30.9586 15.2003 30.6607 15.1099 30.356 15.1097H30.3553C29.9468 15.1099 29.5551 15.2721 29.2662 15.5608C28.9773 15.8494 28.8148 16.2408 28.8145 16.6491ZM18.3133 33.9455C17.0613 33.8885 16.3809 33.6801 15.9287 33.504C15.3292 33.2708 14.9015 32.993 14.4517 32.5441C14.002 32.0953 13.7236 31.6682 13.4913 31.0691C13.315 30.6174 13.1065 29.9371 13.0495 28.686C12.9873 27.3333 12.9749 26.9269 12.9749 23.5C12.9749 20.073 12.9883 19.6678 13.0495 18.3139C13.1066 17.0628 13.3166 16.3839 13.4913 15.9308C13.7247 15.3317 14.0026 14.9042 14.4517 14.4547C14.9008 14.0053 15.3282 13.7271 15.9287 13.4948C16.3807 13.3187 17.0613 13.1103 18.3133 13.0534C19.6668 12.9912 20.0733 12.9788 23.5008 12.9788C26.9283 12.9788 27.3353 12.9922 28.69 13.0534C29.9419 13.1104 30.6212 13.3203 31.0745 13.4948C31.674 13.7271 32.1018 14.0059 32.5515 14.4547C33.0012 14.9036 33.2786 15.3317 33.512 15.9308C33.6882 16.3825 33.8968 17.0628 33.9537 18.3139C34.0159 19.6678 34.0284 20.073 34.0284 23.5C34.0284 26.9269 34.0159 27.3322 33.9537 28.686C33.8967 29.9371 33.6871 30.6172 33.512 31.0691C33.2786 31.6682 33.0006 32.0957 32.5515 32.5441C32.1024 32.9926 31.674 33.2708 31.0745 33.504C30.6225 33.6802 29.9419 33.8886 28.69 33.9455C27.3365 34.0077 26.9299 34.0201 23.5008 34.0201C20.0718 34.0201 19.6663 34.0077 18.3133 33.9455ZM18.2069 10.7447C16.84 10.8069 15.9059 11.0235 15.0902 11.3408C14.2454 11.6684 13.5302 12.1079 12.8155 12.821C12.1009 13.5341 11.6623 14.2499 11.3345 15.0942C11.017 15.91 10.8003 16.843 10.738 18.2091C10.6748 19.5774 10.6603 20.0149 10.6603 23.4999C10.6603 26.9848 10.6748 27.4223 10.738 28.7906C10.8003 30.1568 11.017 31.0897 11.3345 31.9055C11.6623 32.7493 12.101 33.466 12.8155 34.1787C13.5301 34.8915 14.2454 35.3304 15.0902 35.6589C15.9074 35.9762 16.84 36.1928 18.2069 36.255C19.5768 36.3172 20.0138 36.3327 23.5008 36.3327C26.9879 36.3327 27.4256 36.3182 28.7947 36.255C30.1618 36.1928 31.0953 35.9762 31.9115 35.6589C32.7558 35.3304 33.4715 34.8918 34.1861 34.1787C34.9008 33.4656 35.3385 32.7493 35.6672 31.9055C35.9846 31.0897 36.2024 30.1567 36.2636 28.7906C36.3259 27.4213 36.3404 26.9848 36.3404 23.4999C36.3404 20.0149 36.3259 19.5774 36.2636 18.2091C36.2014 16.8429 35.9846 15.9095 35.6672 15.0942C35.3385 14.2504 34.8997 13.5352 34.1861 12.821C33.4726 12.1067 32.7558 11.6684 31.9125 11.3408C31.0953 11.0235 30.1617 10.8059 28.7958 10.7447C27.4267 10.6825 26.989 10.667 23.5019 10.667C20.0148 10.667 19.5768 10.6815 18.2069 10.7447Z" fill="white"/>
</svg>
