<svg width="47" height="47" viewBox="0 0 47 47" fill="none" xmlns="http://www.w3.org/2000/svg">
<circle cx="23.5" cy="23.5" r="23.5" fill="#007473"/>
<path d="M10.7797 12.6194C10.7797 11.604 11.6297 10.7798 12.6777 10.7798H34.5628C35.6111 10.7798 36.4608 11.604 36.4608 12.6194V34.6216C36.4608 35.6373 35.6111 36.4609 34.5628 36.4609H12.6777C11.6298 36.4609 10.7797 35.6374 10.7797 34.6219V12.6191V12.6194Z" fill="white"/>
<path d="M18.5837 32.2714V20.7096H14.7408V32.2714H18.5841H18.5837ZM16.6631 19.1314C18.0029 19.1314 18.837 18.2435 18.837 17.134C18.812 15.9993 18.0029 15.1362 16.6886 15.1362C15.3733 15.1362 14.5143 15.9993 14.5143 17.1339C14.5143 18.2434 15.3481 19.1313 16.6379 19.1313H16.6628L16.6631 19.1314ZM20.7109 32.2714H24.5535V25.8155C24.5535 25.4704 24.5786 25.1244 24.6801 24.8779C24.9578 24.1872 25.5901 23.4723 26.6519 23.4723C28.0421 23.4723 28.5986 24.5324 28.5986 26.0868V32.2714H32.4411V25.6422C32.4411 22.0911 30.5455 20.4386 28.0172 20.4386C25.9444 20.4386 25.034 21.5971 24.5282 22.3862H24.5538V20.71H20.7111C20.7612 21.7947 20.7108 32.2718 20.7108 32.2718L20.7109 32.2714Z" fill="#007473"/>
</svg>
